<svg preserveAspectRatio="none" width="100%" height="100%" overflow="visible" style="display: block;" viewBox="0 0 24 24" fill="none" xmlns="http://www.w3.org/2000/svg">
<g id="training-center_svgrepo.com" clip-path="url(#clip0_2002_3261)">
<path id="Vector" d="M18.5322 17.4684C18.3888 17.3455 18.2042 17.2813 18.0154 17.2886C17.8267 17.2959 17.6476 17.3742 17.5141 17.5077C17.3805 17.6413 17.3022 17.8204 17.295 18.0091C17.2877 18.1979 17.3519 18.3824 17.4747 18.5259L19.7247 20.7759C19.8682 20.8988 20.0528 20.963 20.2415 20.9557C20.4303 20.9484 20.6093 20.8702 20.7429 20.7366C20.8765 20.603 20.9547 20.424 20.962 20.2352C20.9693 20.0464 20.9051 19.8619 20.7822 19.7184L18.5322 17.4684ZM13.0647 12.0009L16.0647 9.00091L19.2897 12.2259C19.4303 12.3656 19.6203 12.444 19.8185 12.444C20.0166 12.444 20.2067 12.3656 20.3472 12.2259L23.0247 9.54841C23.1644 9.40789 23.2428 9.2178 23.2428 9.01966C23.2428 8.82152 23.1644 8.63143 23.0247 8.49091L21.2022 6.64591C21.1068 6.55115 20.9876 6.4838 20.8572 6.45091L19.8372 6.18841L19.5747 5.16091C19.5418 5.0305 19.4745 4.91134 19.3797 4.81591L16.6422 2.08591C14.0472 -0.516593 8.93974 1.50091 8.72224 1.55341C8.55974 1.61763 8.42477 1.73657 8.34062 1.88969C8.25646 2.04282 8.22842 2.22052 8.26131 2.39212C8.29421 2.56372 8.38599 2.71845 8.52081 2.8296C8.65562 2.94075 8.82501 3.00133 8.99974 3.00091C9.74974 3.00091 11.5872 4.46341 12.9072 5.82091L14.9997 7.93591L11.9997 10.9359L10.8072 9.75091L11.7747 8.78341C11.9144 8.64288 11.9928 8.4528 11.9928 8.25466C11.9928 8.05652 11.9144 7.86643 11.7747 7.72591L5.02474 0.975907C4.88421 0.836219 4.69413 0.757812 4.49599 0.757812C4.29785 0.757812 4.10776 0.836219 3.96724 0.975907L0.967236 3.97591C0.827548 4.11643 0.749141 4.30652 0.749141 4.50466C0.749141 4.7028 0.827548 4.89289 0.967236 5.03341L7.71724 11.7834C7.85776 11.9231 8.04785 12.0015 8.24599 12.0015C8.44413 12.0015 8.63421 11.9231 8.77474 11.7834L9.74974 10.8084L10.9422 12.0009L0.967236 21.9684C0.888725 22.0356 0.824959 22.1184 0.779942 22.2114C0.734924 22.3045 0.709627 22.4058 0.705637 22.5091C0.701647 22.6124 0.719052 22.7154 0.756758 22.8117C0.794464 22.9079 0.851657 22.9953 0.924748 23.0684C0.997839 23.1415 1.08525 23.1987 1.18149 23.2364C1.27774 23.2741 1.38074 23.2915 1.48403 23.2875C1.58732 23.2835 1.68866 23.2582 1.78171 23.2132C1.87476 23.1682 1.9575 23.1044 2.02474 23.0259L11.9997 13.0659L15.2172 16.2834C15.3607 16.4063 15.5453 16.4705 15.734 16.4632C15.9228 16.4559 16.1018 16.3777 16.2354 16.2441C16.369 16.1105 16.4472 15.9315 16.4545 15.7427C16.4618 15.5539 16.3976 15.3694 16.2747 15.2259L13.0647 12.0009ZM13.9797 4.77091C13.1465 3.89882 12.2324 3.10778 11.2497 2.40841C12.7497 2.13091 14.5797 2.11591 15.6147 3.15841L18.2097 5.75341L18.5322 7.00591C18.5656 7.13603 18.6334 7.25479 18.7284 7.34978C18.8234 7.44478 18.9421 7.51251 19.0722 7.54591L20.3247 7.86841L21.4422 9.00091L19.8222 10.6209L13.9797 4.77091ZM8.24974 10.1934L2.55724 4.50091L4.49974 2.55841L10.1922 8.25091L8.24974 10.1934Z" fill="var(--fill-0, white)"/>
<path id="Vector_2" d="M21.75 22.5C21.75 22.6989 21.829 22.8897 21.9697 23.0303C22.1103 23.171 22.3011 23.25 22.5 23.25C22.6989 23.25 22.8897 23.171 23.0303 23.0303C23.171 22.8897 23.25 22.6989 23.25 22.5C23.25 22.3011 23.171 22.1103 23.0303 21.9697C22.8897 21.829 22.6989 21.75 22.5 21.75C22.3011 21.75 22.1103 21.829 21.9697 21.9697C21.829 22.1103 21.75 22.3011 21.75 22.5Z" fill="var(--fill-0, white)"/>
</g>
<defs>
<clipPath id="clip0_2002_3261">
<rect width="24" height="24" fill="white"/>
</clipPath>
</defs>
</svg>
