<svg preserveAspectRatio="none" width="100%" height="100%" overflow="visible" style="display: block;" viewBox="0 0 20 20" fill="none" xmlns="http://www.w3.org/2000/svg">
<g id="Icon">
<path id="Vector" d="M13.3333 17.5V15.8333C13.3333 14.9493 12.9821 14.1014 12.357 13.4763C11.7319 12.8512 10.8841 12.5 10 12.5H5C4.11595 12.5 3.2681 12.8512 2.64298 13.4763C2.01786 14.1014 1.66667 14.9493 1.66667 15.8333V17.5" stroke="var(--stroke-0, #384756)" stroke-width="1.66667" stroke-linecap="round" stroke-linejoin="round"/>
<path id="Vector_2" d="M13.3335 2.60742C14.0483 2.79273 14.6813 3.21014 15.1332 3.79414C15.5851 4.37814 15.8303 5.09566 15.8303 5.83409C15.8303 6.57251 15.5851 7.29004 15.1332 7.87404C14.6813 8.45804 14.0483 8.87545 13.3335 9.06075" stroke="var(--stroke-0, #384756)" stroke-width="1.66667" stroke-linecap="round" stroke-linejoin="round"/>
<path id="Vector_3" d="M18.3335 17.4991V15.8324C18.3329 15.0939 18.0871 14.3764 17.6346 13.7927C17.1821 13.209 16.5486 12.7921 15.8335 12.6074" stroke="var(--stroke-0, #384756)" stroke-width="1.66667" stroke-linecap="round" stroke-linejoin="round"/>
<path id="Vector_4" d="M7.5 9.16667C9.34095 9.16667 10.8333 7.67428 10.8333 5.83333C10.8333 3.99238 9.34095 2.5 7.5 2.5C5.65905 2.5 4.16667 3.99238 4.16667 5.83333C4.16667 7.67428 5.65905 9.16667 7.5 9.16667Z" stroke="var(--stroke-0, #384756)" stroke-width="1.66667" stroke-linecap="round" stroke-linejoin="round"/>
</g>
</svg>
