<svg preserveAspectRatio="none" width="100%" height="100%" overflow="visible" style="display: block;" viewBox="0 0 20 20" fill="none" xmlns="http://www.w3.org/2000/svg">
<g id="Icon">
<path id="Vector" d="M10 5.83398V17.5007" stroke="var(--stroke-0, white)" stroke-width="1.66667" stroke-linecap="round" stroke-linejoin="round"/>
<path id="Vector_2" d="M2.5 15C2.27899 15 2.06702 14.9122 1.91074 14.7559C1.75446 14.5996 1.66667 14.3877 1.66667 14.1667V3.33333C1.66667 3.11232 1.75446 2.90036 1.91074 2.74408C2.06702 2.5878 2.27899 2.5 2.5 2.5H6.66667C7.55072 2.5 8.39857 2.85119 9.02369 3.47631C9.64881 4.10143 10 4.94928 10 5.83333C10 4.94928 10.3512 4.10143 10.9763 3.47631C11.6014 2.85119 12.4493 2.5 13.3333 2.5H17.5C17.721 2.5 17.933 2.5878 18.0893 2.74408C18.2455 2.90036 18.3333 3.11232 18.3333 3.33333V14.1667C18.3333 14.3877 18.2455 14.5996 18.0893 14.7559C17.933 14.9122 17.721 15 17.5 15H12.5C11.837 15 11.2011 15.2634 10.7322 15.7322C10.2634 16.2011 10 16.837 10 17.5C10 16.837 9.73661 16.2011 9.26777 15.7322C8.79893 15.2634 8.16304 15 7.5 15H2.5Z" stroke="var(--stroke-0, white)" stroke-width="1.66667" stroke-linecap="round" stroke-linejoin="round"/>
</g>
</svg>
