<svg preserveAspectRatio="none" width="100%" height="100%" overflow="visible" style="display: block;" viewBox="0 0 24 24" fill="none" xmlns="http://www.w3.org/2000/svg">
<g id="Icon">
<path id="Vector" d="M2 9.50053C2.00002 8.38773 2.33759 7.30111 2.96813 6.38419C3.59867 5.46727 4.49252 4.76319 5.53161 4.36493C6.5707 3.96667 7.70616 3.89297 8.78801 4.15357C9.86987 4.41417 10.8472 4.99681 11.591 5.82453C11.6434 5.88054 11.7067 5.9252 11.7771 5.95573C11.8474 5.98626 11.9233 6.00201 12 6.00201C12.0767 6.00201 12.1526 5.98626 12.2229 5.95573C12.2933 5.9252 12.3566 5.88054 12.409 5.82453C13.1504 4.99143 14.128 4.4039 15.2116 4.14013C16.2952 3.87636 17.4335 3.94887 18.4749 4.34801C19.5163 4.74715 20.4114 5.45398 21.0411 6.37443C21.6708 7.29488 22.0053 8.38529 22 9.50053C22 11.7905 20.5 13.5005 19 15.0005L13.508 20.3135C13.3217 20.5275 13.0919 20.6994 12.834 20.8178C12.5762 20.9362 12.296 20.9984 12.0123 21.0002C11.7285 21.002 11.4476 20.9434 11.1883 20.8283C10.9289 20.7131 10.697 20.5442 10.508 20.3325L5 15.0005C3.5 13.5005 2 11.8005 2 9.50053Z" stroke="var(--stroke-0, white)" stroke-width="2" stroke-linecap="round" stroke-linejoin="round"/>
</g>
</svg>
