<svg preserveAspectRatio="none" width="100%" height="100%" overflow="visible" style="display: block;" viewBox="0 0 20 20" fill="none" xmlns="http://www.w3.org/2000/svg">
<g id="Icon" clip-path="url(#clip0_2002_3254)">
<path id="Vector" d="M12.1134 18.0711C12.145 18.15 12.2001 18.2174 12.2711 18.2641C12.3421 18.3108 12.4258 18.3347 12.5107 18.3325C12.5957 18.3303 12.678 18.3022 12.7466 18.2519C12.8151 18.2016 12.8666 18.1316 12.8942 18.0511L18.3109 2.21781C18.3375 2.14397 18.3426 2.06406 18.3255 1.98744C18.3085 1.91081 18.2699 1.84064 18.2144 1.78513C18.1589 1.72961 18.0887 1.69106 18.0121 1.67397C17.9355 1.65688 17.8555 1.66197 17.7817 1.68864L1.94837 7.10531C1.86795 7.13289 1.7979 7.18441 1.7476 7.25295C1.69731 7.3215 1.66918 7.40379 1.66701 7.48878C1.66483 7.57377 1.6887 7.65739 1.73542 7.72842C1.78214 7.79945 1.84947 7.85448 1.92837 7.88614L8.53671 10.5361C8.74561 10.6198 8.93542 10.7449 9.09468 10.9038C9.25394 11.0628 9.37936 11.2524 9.46337 11.4611L12.1134 18.0711Z" stroke="var(--stroke-0, white)" stroke-width="1.66667" stroke-linecap="round" stroke-linejoin="round"/>
<path id="Vector_2" d="M18.2117 1.78914L9.095 10.905" stroke="var(--stroke-0, white)" stroke-width="1.66667" stroke-linecap="round" stroke-linejoin="round"/>
</g>
<defs>
<clipPath id="clip0_2002_3254">
<rect width="20" height="20" fill="white"/>
</clipPath>
</defs>
</svg>
