<svg preserveAspectRatio="none" width="100%" height="100%" overflow="visible" style="display: block;" viewBox="0 0 48 48" fill="none" xmlns="http://www.w3.org/2000/svg">
<g id="Icon">
<path id="Vector" d="M20 29.3203V32.5723C19.9924 33.2576 19.809 33.9294 19.4672 34.5233C19.1254 35.1173 18.6367 35.6135 18.048 35.9643C16.7983 36.8899 15.7817 38.0943 15.079 39.4816C14.3763 40.869 14.0068 42.4012 14 43.9563" stroke="var(--stroke-0, white)" stroke-width="4" stroke-linecap="round" stroke-linejoin="round"/>
<path id="Vector_2" d="M28 29.3203V32.5723C28.0076 33.2576 28.191 33.9294 28.5328 34.5233C28.8746 35.1173 29.3633 35.6135 29.952 35.9643C31.2017 36.8899 32.2183 38.0943 32.921 39.4816C33.6237 40.869 33.9932 42.4012 34 43.9563" stroke="var(--stroke-0, white)" stroke-width="4" stroke-linecap="round" stroke-linejoin="round"/>
<path id="Vector_3" d="M36 18H39C40.3261 18 41.5979 17.4732 42.5355 16.5355C43.4732 15.5979 44 14.3261 44 13C44 11.6739 43.4732 10.4021 42.5355 9.46447C41.5979 8.52678 40.3261 8 39 8H36" stroke="var(--stroke-0, white)" stroke-width="4" stroke-linecap="round" stroke-linejoin="round"/>
<path id="Vector_4" d="M8 44H40" stroke="var(--stroke-0, white)" stroke-width="4" stroke-linecap="round" stroke-linejoin="round"/>
<path id="Vector_5" d="M12 18C12 21.1826 13.2643 24.2348 15.5147 26.4853C17.7652 28.7357 20.8174 30 24 30C27.1826 30 30.2348 28.7357 32.4853 26.4853C34.7357 24.2348 36 21.1826 36 18V6C36 5.46957 35.7893 4.96086 35.4142 4.58579C35.0391 4.21071 34.5304 4 34 4H14C13.4696 4 12.9609 4.21071 12.5858 4.58579C12.2107 4.96086 12 5.46957 12 6V18Z" stroke="var(--stroke-0, white)" stroke-width="4" stroke-linecap="round" stroke-linejoin="round"/>
<path id="Vector_6" d="M12 18H9C7.67392 18 6.40215 17.4732 5.46447 16.5355C4.52678 15.5979 4 14.3261 4 13C4 11.6739 4.52678 10.4021 5.46447 9.46447C6.40215 8.52678 7.67392 8 9 8H12" stroke="var(--stroke-0, white)" stroke-width="4" stroke-linecap="round" stroke-linejoin="round"/>
</g>
</svg>
